<?xml version="1.0" standalone="no"?>
<!DOCTYPE svg PUBLIC "-//W3C//DTD SVG 20010904//EN"
 "http://www.w3.org/TR/2001/REC-SVG-20010904/DTD/svg10.dtd">
<svg version="1.0" xmlns="http://www.w3.org/2000/svg"
 width="662.000000pt" height="450.000000pt" viewBox="0 0 662.000000 450.000000"
 preserveAspectRatio="xMidYMid meet">

<g transform="translate(0.000000,450.000000) scale(0.100000,-0.100000)"
fill="#000000" stroke="none">
<path d="M3027 4133 c-66 -25 -70 -29 -99 -86 -29 -58 -30 -65 -26 -166 4 -98
7 -111 40 -176 37 -72 88 -132 88 -104 0 33 -33 109 -46 109 -19 0 -46 63 -38
85 5 12 14 15 31 11 19 -5 25 -1 33 19 6 15 10 41 10 60 0 19 5 46 10 60 l10
27 154 -4 c169 -3 180 0 190 56 8 41 -6 81 -33 95 -21 12 -126 30 -206 37 -37
3 -67 -3 -118 -23z"/>
<path d="M1486 4025 c-42 -15 -118 -83 -142 -128 -10 -19 -18 -77 -24 -175
-12 -198 -55 -349 -140 -489 -45 -75 -64 -149 -79 -313 -6 -63 -14 -138 -17
-167 -5 -46 -3 -52 15 -55 18 -3 4 -30 -113 -228 l-134 -225 2450 -3 c1348 -1
2453 -1 2455 1 1 2 -31 104 -72 227 -41 124 -75 226 -75 227 0 2 7 3 15 3 10
0 15 10 15 28 0 47 -159 560 -200 648 -35 73 -43 84 -83 103 -25 12 -72 27
-106 34 -45 10 -69 21 -95 46 l-34 33 -29 -20 c-47 -33 -92 -41 -136 -24 -38
14 -39 14 -70 -16 -24 -22 -48 -33 -92 -41 -134 -24 -185 -52 -218 -116 -41
-81 -79 -276 -102 -522 -6 -63 -5 -73 9 -73 12 0 16 -10 16 -41 0 -26 4 -38
11 -33 6 3 9 19 7 35 -6 41 19 38 32 -3 l10 -33 -3 33 c-4 39 11 42 55 11 26
-19 28 -23 15 -38 -8 -9 -12 -22 -10 -28 6 -18 43 -16 43 1 0 15 43 38 105 55
22 7 101 14 175 18 121 5 143 3 214 -17 93 -26 116 -38 116 -63 0 -16 -2 -17
-31 -1 -42 21 -152 36 -182 25 -24 -9 -47 -64 -47 -114 0 -30 -17 -44 -33 -28
-13 13 -96 14 -116 2 -9 -6 -27 -3 -50 10 -44 24 -46 24 -82 -2 -29 -20 -29
-20 -56 -1 -54 37 -53 37 -53 -27 l0 -61 190 0 c120 0 190 -4 190 -10 0 -6
-70 -10 -190 -10 -158 0 -190 -2 -190 -14 0 -33 -68 -41 -330 -41 -262 0 -330
8 -330 41 0 11 -20 14 -95 14 -57 0 -95 4 -95 10 0 6 38 10 95 10 l95 0 0 39
c0 33 -5 42 -32 59 l-32 20 -35 -24 c-33 -22 -37 -23 -59 -8 -22 14 -25 14
-41 0 -15 -14 -49 -17 -198 -18 l-180 -2 -32 27 -32 27 -39 -26 c-39 -26 -39
-26 -67 -7 -15 10 -39 17 -52 15 -22 -3 -20 -6 16 -22 56 -25 60 -36 21 -60
l-33 -20 168 0 c104 0 167 -4 167 -10 0 -6 -80 -10 -220 -10 -213 0 -222 -1
-283 -26 -42 -17 -98 -29 -175 -37 -111 -11 -113 -11 -90 -29 30 -23 47 -22
78 2 14 11 30 20 35 20 6 0 21 -9 35 -20 32 -25 45 -25 82 2 27 18 33 19 52 8
11 -7 29 -18 39 -24 12 -8 22 -8 37 2 11 6 28 17 39 24 15 9 24 7 49 -10 38
-27 46 -27 84 0 23 16 35 19 47 11 9 -5 26 -16 38 -24 19 -12 27 -11 62 9 l39
22 37 -21 c30 -18 40 -20 61 -10 53 24 62 5 10 -23 -33 -18 -34 -18 -73 5
l-40 23 -33 -24 -33 -23 -43 22 -43 23 -29 -21 c-37 -26 -50 -26 -82 -1 -31
24 -39 24 -70 0 -32 -25 -45 -25 -82 2 -27 18 -33 19 -52 8 -11 -7 -29 -18
-38 -24 -13 -8 -23 -8 -38 2 -11 6 -28 17 -39 24 -15 9 -24 7 -49 -10 -37 -27
-47 -27 -84 -1 l-29 21 -43 -23 -43 -22 -33 23 -33 23 -41 -22 -41 -23 -37 22
-37 21 -39 -22 -39 -23 -36 23 -37 23 -37 -23 -36 -23 -39 22 -38 23 -38 -23
-39 -22 -36 23 -37 23 -37 -23 -36 -23 -39 23 -39 22 -36 -22 -36 -22 -42 23
-42 23 -33 -23 -33 -23 -43 22 -43 23 -29 -21 c-37 -26 -47 -26 -84 1 -25 17
-34 19 -49 10 -11 -7 -28 -17 -39 -24 -16 -10 -26 -8 -60 11 l-40 22 -34 -20
c-39 -25 -50 -26 -43 -7 3 8 -1 17 -9 20 -21 8 -17 25 9 36 12 5 16 9 10 9
-15 1 -18 31 -3 31 5 0 7 7 4 15 -4 8 -1 15 5 15 6 0 8 7 5 15 -4 8 -1 15 6
15 7 0 10 7 6 15 -3 9 0 15 8 15 9 0 12 7 9 21 -5 18 -3 20 16 14 20 -6 22 -5
12 13 -17 33 -14 48 7 29 17 -15 21 -15 54 8 l35 24 37 -25 36 -25 36 25 37
25 35 -24 c19 -13 40 -21 46 -18 6 3 23 14 37 24 25 18 27 17 63 -7 26 -18 41
-23 48 -16 7 7 -4 17 -35 32 -48 23 -64 45 -47 65 5 7 39 25 75 40 44 20 62
32 55 39 -18 18 -11 26 23 26 28 0 33 -4 33 -22 -1 -20 3 -21 64 -19 36 1 68
8 72 14 6 9 10 9 16 1 9 -14 73 -24 102 -17 15 4 19 11 15 24 -5 16 -1 19 25
19 26 0 31 -3 26 -16 -7 -17 3 -28 67 -70 42 -27 47 -48 16 -65 -21 -11 -21
-12 10 -26 32 -16 41 -33 18 -33 -7 0 -18 5 -25 12 -9 9 -15 9 -24 0 -9 -9 -9
-12 2 -12 11 0 11 -3 2 -12 -18 -18 -14 -56 7 -68 29 -15 50 -12 100 12 29 14
69 23 109 25 64 3 64 3 108 -42 35 -36 50 -45 78 -45 19 0 36 5 38 11 3 9 9 9
26 0 28 -15 162 -3 162 14 0 21 -38 48 -60 42 -12 -3 -23 1 -29 10 -7 14 -11
14 -33 -1 -23 -15 -26 -15 -43 4 -10 11 -15 20 -10 20 4 0 2 7 -5 15 -12 15
-5 55 10 55 5 0 12 -5 16 -11 4 -8 14 1 25 22 16 31 16 36 2 51 -20 22 -33 14
-33 -20 l0 -27 -23 27 c-23 27 -26 27 -157 30 l-133 3 -1 120 -1 119 -35 8
c-19 5 -41 10 -48 11 -8 1 -26 -29 -45 -75 -18 -43 -36 -77 -41 -75 -5 2 -34
77 -65 167 -80 232 -123 304 -196 327 -28 9 -31 14 -47 99 -19 100 -23 301 -8
404 19 129 -16 204 -108 230 -52 14 -170 12 -216 -5z m152 -213 c52 -6 99 -15
105 -22 9 -9 5 -11 -17 -8 -17 2 -31 -2 -33 -9 -3 -8 4 -13 19 -13 62 -1 65
-5 60 -88 -6 -94 -28 -143 -82 -178 -23 -16 -41 -36 -45 -52 -8 -38 10 -91 41
-123 l26 -27 -21 -97 c-12 -53 -26 -106 -32 -117 -10 -19 -12 -19 -47 13 -131
120 -151 142 -141 160 24 46 -6 341 -39 382 -8 9 -16 34 -19 57 -5 35 -3 40
14 40 10 0 24 -5 30 -11 15 -15 29 12 38 73 6 43 9 46 29 38 11 -5 63 -13 114
-18z m3298 -563 c51 -13 56 -25 17 -41 -59 -23 -233 -8 -233 21 0 25 141 39
216 20z m83 -57 c-2 -21 1 -43 5 -50 4 -6 -1 -26 -10 -44 -28 -56 -31 -58 -69
-42 -19 8 -50 14 -69 14 -50 0 -86 16 -128 58 -61 58 -47 68 37 27 90 -44 162
-28 200 46 21 40 36 36 34 -9z m405 -31 c3 -5 9 -39 12 -77 l6 -69 -86 0 c-54
0 -86 4 -86 11 0 17 22 128 27 137 6 10 121 9 127 -2z m-54 -396 c0 -103 0
-105 25 -111 31 -8 32 -18 4 -30 -21 -10 -21 -10 5 -27 25 -17 27 -17 63 7 34
24 61 26 48 5 -4 -5 1 -9 9 -9 9 0 18 -10 21 -22 53 -234 53 -228 24 -228 -12
0 -37 -8 -56 -17 -30 -14 -39 -14 -57 -3 -11 7 -28 18 -37 23 -12 8 -24 5 -47
-11 -16 -12 -35 -22 -42 -22 -7 0 -26 10 -42 22 -27 18 -33 19 -52 8 -11 -7
-29 -18 -38 -24 -13 -8 -23 -8 -38 2 -11 6 -28 17 -39 24 -15 9 -24 7 -49 -10
-37 -27 -50 -27 -82 -2 -14 11 -29 20 -35 20 -5 0 -21 -9 -35 -20 -32 -25 -45
-25 -82 1 l-29 21 -43 -23 -43 -22 -33 23 -33 23 -41 -22 -41 -23 -38 22 -37
22 -36 -22 -36 -23 -39 22 -39 22 -37 -22 -36 -23 -39 23 -39 22 -36 -22 -36
-23 -39 23 -39 22 -36 -22 -36 -23 -39 23 -39 22 -36 -22 -36 -23 -39 22 -38
23 -39 -23 -38 -22 -34 23 -34 23 39 -6 c30 -4 48 0 73 15 l33 21 37 -23 36
-23 39 23 39 22 36 -22 36 -23 39 23 39 22 36 -22 36 -23 39 23 39 22 36 -22
36 -23 39 22 38 23 38 -23 39 -22 36 23 37 22 39 -22 39 -21 40 22 40 23 30
-22 c37 -26 50 -26 82 -1 14 11 30 20 35 20 6 0 21 -9 35 -20 32 -25 45 -25
82 2 27 18 33 19 52 8 11 -7 29 -18 38 -24 13 -8 25 -6 46 6 29 17 57 16 100
-5 17 -8 28 -8 43 1 10 7 27 17 38 24 15 9 24 7 49 -10 37 -27 50 -27 82 -2
14 11 30 20 35 20 6 0 21 -9 35 -20 27 -21 55 -26 65 -10 3 6 3 30 -1 55 l-6
45 -110 0 c-70 0 -107 4 -103 10 3 6 50 10 107 10 87 0 99 2 94 16 -3 9 -6 23
-6 32 0 9 -4 23 -9 31 -8 12 -12 12 -25 2 -12 -10 -21 -8 -52 13 -31 21 -41
23 -53 13 -12 -10 -14 -9 -9 10 4 16 1 24 -13 28 -25 8 -24 22 1 30 22 7 22
11 20 122 -1 40 2 77 5 83 18 28 25 0 25 -95z"/>
<path d="M1533 3783 c-28 -11 -11 -23 32 -23 33 0 45 4 45 15 0 15 -48 20 -77
8z"/>
<path d="M1550 3720 c0 -19 11 -26 23 -14 8 8 -3 34 -14 34 -5 0 -9 -9 -9 -20z"/>
<path d="M1716 3714 c-9 -22 -8 -24 9 -24 8 0 15 6 15 14 0 22 -17 28 -24 10z"/>
<path d="M1574 3552 c26 -50 73 -56 105 -15 12 14 20 27 19 28 -2 1 -34 5 -71
9 l-68 7 15 -29z m105 2 c9 -8 -23 -34 -42 -34 -21 0 -57 26 -57 41 0 8 89 1
99 -7z"/>
<path d="M4860 3881 c0 -12 6 -21 16 -21 9 0 14 7 12 17 -5 25 -28 28 -28 4z"/>
<path d="M5040 3880 c0 -13 5 -20 13 -17 6 2 12 10 12 17 0 7 -6 15 -12 18 -8
2 -13 -5 -13 -18z"/>
<path d="M3243 3883 c-29 -11 -10 -23 34 -23 27 0 43 4 38 9 -13 11 -57 20
-72 14z"/>
<path d="M3060 3867 c-24 -11 -24 -11 14 -15 44 -4 70 3 61 18 -8 13 -43 12
-75 -3z"/>
<path d="M4952 3850 c0 -19 2 -27 5 -17 2 9 2 25 0 35 -3 9 -5 1 -5 -18z"/>
<path d="M3085 3820 c-7 -12 2 -30 16 -30 12 0 12 27 0 35 -5 3 -12 1 -16 -5z"/>
<path d="M3266 3823 c-12 -12 -6 -33 9 -33 8 0 15 6 15 14 0 17 -14 28 -24 19z"/>
<path d="M4941 3794 c0 -11 3 -14 6 -6 3 7 2 16 -1 19 -3 4 -6 -2 -5 -13z"/>
<path d="M3192 3775 c0 -16 2 -22 5 -12 2 9 2 23 0 30 -3 6 -5 -1 -5 -18z"/>
<path d="M3201 3724 c0 -11 3 -14 6 -6 3 7 2 16 -1 19 -3 4 -6 -2 -5 -13z"/>
<path d="M3120 3660 c0 -18 48 -60 68 -60 10 0 27 10 38 23 19 22 19 22 -2 5
-28 -24 -49 -23 -76 4 l-22 22 24 7 c25 7 25 7 -2 8 -16 1 -28 -4 -28 -9z"/>
<path d="M3220 3666 c0 -2 7 -6 15 -10 8 -3 15 -1 15 4 0 6 -7 10 -15 10 -8 0
-15 -2 -15 -4z"/>
<path d="M2149 3405 c-20 -7 -50 -20 -67 -29 -29 -15 -30 -18 -20 -48 23 -74
96 -101 143 -53 29 28 32 72 10 115 -17 34 -17 34 -66 15z"/>
<path d="M3073 2973 c-8 -3 -13 -23 -13 -49 0 -100 113 -132 159 -45 16 29 6
87 -15 95 -18 7 -114 7 -131 -1z"/>
<path d="M4176 2772 c-10 -11 -16 -12 -16 -4 0 14 -36 10 -52 -6 -9 -9 -9 -12
0 -12 8 0 11 -10 7 -27 l-5 -28 13 27 c14 29 43 24 31 -5 -3 -10 -1 -17 5 -17
6 0 11 8 11 19 0 28 50 16 51 -13 1 -20 1 -20 7 2 4 13 12 23 17 23 6 0 13
-10 17 -23 6 -22 6 -21 7 5 1 35 31 38 31 2 0 -14 4 -25 9 -25 4 0 6 11 3 25
-5 28 12 33 37 11 14 -13 17 -12 28 10 11 23 10 24 -21 24 -18 0 -37 5 -44 12
-7 7 -12 8 -12 4 0 -5 -7 -3 -15 4 -12 10 -18 10 -30 0 -8 -7 -15 -8 -15 -2 0
15 -47 11 -64 -6z"/>
<path d="M4030 2740 c-6 -12 -9 -24 -7 -27 3 -2 11 5 17 17 6 12 9 24 7 27 -3
2 -11 -5 -17 -17z"/>
<path d="M4420 2748 c0 -7 -3 -24 -7 -38 -9 -36 6 -19 17 19 5 19 5 31 -1 31
-5 0 -9 -6 -9 -12z"/>
<path d="M4460 2728 c0 -25 3 -29 10 -18 13 20 13 50 0 50 -5 0 -10 -15 -10
-32z"/>
<path d="M4077 2743 c-4 -3 -7 -16 -6 -27 0 -19 1 -19 10 3 10 24 8 36 -4 24z"/>
<path d="M2700 2705 c-40 -43 -10 -136 32 -98 22 20 23 37 2 54 -11 9 -14 22
-10 41 7 34 5 34 -24 3z"/>
<path d="M2837 2693 c-4 -3 -7 -11 -7 -17 0 -6 5 -5 12 2 6 6 9 14 7 17 -3 3
-9 2 -12 -2z"/>
<path d="M2920 2689 c-30 -3 -52 -6 -48 -7 4 -1 3 -16 -2 -33 -5 -18 -7 -29
-3 -26 3 4 15 2 25 -4 15 -8 17 -14 9 -22 -6 -6 -11 -19 -11 -29 0 -9 -16 -33
-35 -53 -20 -19 -33 -35 -29 -35 10 0 129 114 127 121 -1 3 14 21 32 39 19 19
35 31 35 27 0 -3 -25 -39 -55 -79 -30 -40 -49 -75 -44 -77 15 -5 89 69 89 89
0 13 -1 13 -10 0 -8 -13 -10 -13 -10 2 0 13 7 17 28 14 15 -2 34 -6 42 -10 20
-7 70 38 70 64 0 17 -7 20 -42 21 -69 2 -78 -1 -110 -34 l-30 -32 21 32 c12
17 18 33 14 35 -5 2 -33 1 -63 -3z"/>
<path d="M3188 2692 c-25 -3 -28 -7 -28 -39 0 -20 3 -34 6 -30 4 3 21 -5 40
-19 27 -21 36 -23 53 -14 25 13 27 26 6 34 -19 7 -19 35 -1 55 13 14 11 16
-17 16 -18 0 -44 -1 -59 -3z"/>
<path d="M2776 2675 c4 -8 8 -15 10 -15 2 0 4 7 4 15 0 8 -4 15 -10 15 -5 0
-7 -7 -4 -15z"/>
<path d="M3845 2680 c3 -5 31 -10 61 -10 30 0 54 5 54 10 0 6 -27 10 -61 10
-37 0 -58 -4 -54 -10z"/>
<path d="M3826 2614 c-21 -12 -25 -18 -15 -24 13 -9 29 -3 64 24 l20 15 -20 0
c-11 0 -33 -7 -49 -15z"/>
<path d="M3915 2620 c3 -5 15 -15 26 -20 16 -9 19 -7 19 10 0 15 -7 20 -26 20
-14 0 -22 -4 -19 -10z"/>
<path d="M4663 2605 c35 -25 38 -25 62 -9 34 22 17 34 -50 34 l-50 0 38 -25z"/>
<path d="M2094 2598 l-19 -21 28 18 c28 18 33 25 19 25 -5 0 -17 -10 -28 -22z"/>
<path d="M1250 2580 c-13 -10 -25 -26 -26 -36 -2 -10 -8 -20 -13 -22 -6 -2
-11 -12 -11 -23 0 -17 8 -19 84 -19 47 0 88 -4 91 -10 5 -8 -161 -17 -198 -11
-5 1 -5 -4 -2 -10 8 -12 -12 -57 -35 -78 -8 -7 -2 -6 13 4 27 15 30 15 63 -4
44 -26 49 -26 86 1 25 17 34 19 49 10 11 -7 28 -17 38 -24 16 -10 26 -8 54 7
33 18 37 18 80 1 43 -16 46 -16 81 5 l36 21 36 -23 37 -23 39 22 38 23 38 -23
39 -22 36 23 36 22 39 -22 39 -23 36 23 37 23 37 -23 36 -23 39 22 38 23 38
-23 39 -22 36 23 37 22 38 -21 c38 -22 40 -22 73 -4 l34 18 -130 12 c-101 9
-143 17 -189 38 -58 26 -60 26 -317 26 -166 0 -259 4 -259 10 0 6 78 10 213
11 192 1 209 2 180 15 -40 17 -42 38 -5 59 22 13 23 15 5 10 -32 -9 -258 -8
-316 0 -31 5 -52 3 -62 -5 -11 -9 -21 -6 -51 14 l-37 25 -28 -19 c-15 -11 -35
-20 -44 -20 -9 0 -29 9 -44 20 l-28 19 -37 -25 c-36 -25 -37 -25 -64 -6 -44
31 -47 31 -72 12z"/>
<path d="M2360 2505 c-11 -13 -10 -14 4 -9 9 3 16 10 16 15 0 13 -6 11 -20 -6z"/>
<path d="M2580 2370 c14 -11 32 -20 40 -20 8 0 26 9 40 20 l25 20 -65 0 -65 0
25 -20z"/>
<path d="M715 1728 c-5 -25 -185 -1450 -185 -1467 0 -6 14 -11 30 -11 17 0 30
4 30 10 0 5 54 341 120 746 66 405 120 739 120 740 0 2 -25 4 -55 4 -49 0 -55
-2 -60 -22z"/>
<path d="M4275 1722 l-40 -7 -3 -467 c-1 -271 2 -476 7 -491 8 -20 19 -25 59
-31 28 -3 69 -4 91 0 l41 7 41 131 c22 72 44 142 49 156 9 25 4 -421 -6 -512
-5 -47 -4 -48 24 -48 29 0 30 0 36 73 3 39 17 277 31 527 32 587 29 560 64
560 l27 0 22 -222 c26 -266 73 -661 78 -667 7 -8 138 -6 165 1 l26 8 32 302
c18 167 38 364 44 438 l12 135 151 3 152 3 6 -73 c3 -40 17 -278 31 -528 32
-580 30 -560 61 -560 23 0 24 2 24 83 0 130 -32 1152 -36 1156 -12 13 -370 2
-474 -14 -138 -21 -288 -16 -431 14 -110 23 -226 32 -284 23z"/>
<path d="M5845 1724 c-11 -3 -29 -7 -41 -9 -20 -4 -18 -21 98 -727 64 -398
118 -726 118 -730 0 -5 14 -8 30 -8 l31 0 -7 48 c-3 26 -45 357 -93 737 -92
728 -86 699 -136 689z"/>
<path d="M1086 1697 c3 -8 19 -21 36 -28 l30 -12 -6 -121 c-3 -67 -11 -296
-16 -511 -5 -214 -12 -438 -15 -498 l-6 -107 29 0 29 0 6 88 c4 48 18 296 32
552 14 256 28 480 31 498 l5 32 186 0 185 0 -6 -37 c-14 -84 -18 -422 -7 -538
21 -217 42 -339 59 -353 22 -18 127 -11 146 9 14 14 64 366 101 709 24 217 22
210 50 210 14 0 25 -6 25 -12 0 -7 14 -251 31 -541 17 -291 29 -530 27 -532
-6 -6 -197 61 -213 75 -8 7 -43 13 -77 15 -35 1 -71 6 -80 10 -14 5 -20 -3
-33 -49 -9 -31 -15 -64 -13 -74 6 -31 71 -42 254 -45 96 -1 174 -5 174 -9 0
-5 12 -8 26 -8 l27 0 -7 263 c-3 144 -9 316 -12 382 -4 66 -4 118 -1 115 3 -3
15 -59 27 -125 11 -66 35 -184 52 -262 l31 -143 33 -6 c41 -7 94 1 119 20 17
12 18 30 6 427 -7 228 -16 452 -19 499 l-7 85 -140 17 c-196 23 -330 22 -483
-3 -204 -34 -419 -28 -595 16 -22 6 -26 4 -21 -8z"/>
<path d="M2965 1700 c-55 -5 -123 -12 -152 -15 l-51 -6 -6 -132 c-3 -73 -11
-310 -16 -527 -5 -217 -12 -432 -15 -478 l-5 -82 29 0 c28 0 28 0 35 77 3 43
17 285 31 538 14 253 28 479 31 503 l5 42 109 0 109 0 5 -32 c3 -18 14 -136
26 -263 42 -453 65 -646 81 -656 8 -5 50 -8 94 -7 l80 3 7 60 c22 174 70 619
81 745 l12 145 26 3 c26 3 26 2 33 -74 10 -105 40 -273 81 -439 29 -121 35
-169 45 -350 15 -289 16 -295 46 -295 l24 0 1 118 c1 64 3 110 6 101 5 -20 88
-32 148 -21 l40 7 7 225 c5 124 7 345 5 492 l-2 268 -139 5 c-77 3 -207 15
-290 26 -172 24 -375 31 -521 19z"/>
<path d="M4305 643 c-48 -3 -82 -15 -172 -59 -62 -30 -113 -59 -113 -64 0 -6
20 -20 43 -31 l44 -21 128 21 c142 24 162 32 175 66 13 33 -6 96 -28 93 -9 -1
-44 -3 -77 -5z"/>
<path d="M4905 628 c-74 -11 -231 -73 -281 -113 -24 -19 -26 -25 -16 -38 23
-27 62 -28 201 -6 151 24 188 38 197 74 6 25 -12 96 -24 93 -4 0 -38 -5 -77
-10z"/>
<path d="M2278 613 l-67 -4 -11 -37 c-5 -20 -10 -51 -10 -69 0 -48 37 -55 226
-43 160 11 204 21 204 50 0 27 -21 39 -105 56 -43 9 -98 25 -123 35 -24 10
-44 18 -45 17 -1 -1 -32 -3 -69 -5z"/>
</g>
</svg>
